<svg id="Ebene_1" data-name="Ebene 1" xmlns="http://www.w3.org/2000/svg" viewBox="0 0 100 100"><rect width="100" height="100" fill="#0094d3"/><path d="M80.289,39.249c0-9.835-7.494-17.836-16.7-17.836A16.152,16.152,0,0,0,51.69,26.741a18.326,18.326,0,0,1,2.878,6.653,10.32,10.32,0,0,1,9.016-5.739c5.77,0,10.464,5.2,10.464,11.594A12.608,12.608,0,0,1,72.813,44.7L59.4,66.7,50,51.65,43.667,61.793h0l-.477.764L40.6,66.7h0l-3.7,5.922,3.636,5.962L50,63.435l9.459,15.152,18.785-30.8c.017-.027.025-.056.04-.083.032-.055.068-.106.1-.164A18.872,18.872,0,0,0,80.289,39.249Z" fill="#fff"/><path d="M53.121,39.249c0-9.835-7.494-17.836-16.705-17.836s-16.7,8-16.7,17.836a18.872,18.872,0,0,0,1.909,8.289c.028.058.065.109.1.164.015.027.024.056.04.083L35.4,70.155l3.7-5.923L27.187,44.7a12.608,12.608,0,0,1-1.235-5.455c0-6.393,4.694-11.594,10.464-11.594,5.745,0,10.42,5.157,10.46,11.513a10.743,10.743,0,0,1-5.295,8.651l0,0a10.3,10.3,0,0,1-3.333,1.213c-.1.018-.189.055-.285.081a10.445,10.445,0,0,1-5.4-.539l4.212,6.907a17.01,17.01,0,0,0,6.544-1.548l.207-.1c.334-.159.662-.328.987-.51.1-.055.2-.111.3-.168q.477-.279.94-.592l.175-.12a17.532,17.532,0,0,0,1.7-1.321,3,3,0,0,0,.275-.3,17.08,17.08,0,0,0,5.216-11.4c0-.031-.005-.06,0-.091S53.121,39.279,53.121,39.249Z" fill="#fff"/></svg>